# xmcd
#
# Track frame offsets:
#	150
#	13143
#	27650
#	39345
#	55361
#	70423
#	79996
#	91545
#	109351
#	125138
#	140431
#	154243
#
# Disc length: 2336 seconds
#
# Revision: 1
# Processed by: cddbd v1.5.2PL0 Copyright (c) Steve Scherf et al.
# Submitted via: audiograbber 1.83.01
#
DISCID=a9091e0c
DTITLE=Shawn Byrne - But I Digress
DYEAR=2007
DGENRE=Country Rock
TTITLE0=That train keeps me up at night
TTITLE1=Through the Wringer
TTITLE2=OL'COOKPOT
TTITLE3=Somethin' aint right
TTITLE4=Darkness and Dirt
TTITLE5=Simpleton
TTITLE6=Jesus in my shoes
TTITLE7=Blue Skies over Green Hills
TTITLE8=Poor Bird
TTITLE9=Harry wore a hundred hats
TTITLE10=Goodbye for a while
TTITLE11=Slow moving river
EXTD=
EXTT0=
EXTT1=
EXTT2=
EXTT3=
EXTT4=
EXTT5=
EXTT6=
EXTT7=
EXTT8=
EXTT9=
EXTT10=
EXTT11=
PLAYORDER=
